<?xml version="1.0" encoding="iso-8859-1"?>
<!-- Generator: Adobe Illustrator 19.0.0, SVG Export Plug-In . SVG Version: 6.00 Build 0)  -->
<svg version="1.1" id="Layer_1" xmlns="http://www.w3.org/2000/svg" xmlns:xlink="http://www.w3.org/1999/xlink" x="0px" y="0px"
	 viewBox="0 0 511.99 511.99" style="enable-background:new 0 0 511.99 511.99;" xml:space="preserve">
<rect x="88.005" y="95.995" style="fill:#FFCE54;" width="338.99" height="315.99"/>
<path style="fill:#F5F7FA;" d="M326.747,220.995l-25.749-39.499l-24.249-19.75c0,0-23-9.75-24-10l-17.499,9l-19.25,8.75l-26.5,33
	l-21.499,71.249l14.5,54.498l35.499,26l22.999,5.75h34.75l27.749-6.25l31.499-26.25v-15.499v-41.249L326.747,220.995z"/>
<g>
	<path style="fill:#A0D468;" d="M219.5,175.496l-19.5,19.5l-18.663,39l-5.336,48.5l29.999-8l18-14.5l10.664-35l2.836-24.5
		C237.5,200.496,221,176.496,219.5,175.496z"/>
	<polygon style="fill:#A0D468;" points="334.497,291.994 306.498,298.494 277.343,325.493 277.343,350.993 282.499,363.493 
		317.497,337.493 330.653,320.493 336.497,304.994 	"/>
</g>
<g>
	<polygon style="fill:#F5F7FA;" points="64.003,416.664 64.003,455.335 77.339,478.663 106.666,496.007 138.001,502.662 
		330.653,498.663 401.34,496.007 431.339,476.007 449.995,447.991 449.995,416.664 	"/>
	<polygon style="fill:#F5F7FA;" points="448.995,90.67 448.995,51.999 435.651,28.671 406.34,11.328 374.997,4.671 182.337,8.671 
		111.666,11.328 81.666,31.327 63.003,59.342 63.003,90.67 	"/>
</g>
<rect x="149.255" y="420.245" style="fill:#FC6E51;" width="217.25" height="82.42"/>
<g>
	<path style="fill:#080808;" d="M255.991,373.337c14.203,0,49.757-2.719,73.006-27.953c16.016-17.359,22.891-41.515,20.438-71.811
		c-4.062-50.281-22.656-81.515-37.546-98.874c-17.078-19.921-38.499-32.296-55.897-32.296c-8.195,0-17.578,2.75-27.155,7.922
		c-10.148,5.484-20.055,13.546-28.656,23.343c-14.914,16.984-33.554,47.765-37.616,98.014c-2.484,30.64,4.562,55.186,20.938,72.936
		C208.078,371.259,245.194,373.337,255.991,373.337z M282.624,348.524c1.406-12.562,9.593-23.375,24.78-32.874
		c6.406-4,13.062-7.062,18.749-9.312c-2.438,9.719-6.719,17.952-12.843,24.577C304.623,340.352,293.248,345.618,282.624,348.524z
		 M295.685,188.59c12.844,14.953,28.874,42.125,32.499,86.702c0.188,2.578,0.312,5.109,0.375,7.547
		c-7.75,2.469-20.062,7.062-31.968,14.421c-23.249,14.375-35.366,33.077-35.53,54.608c-1.922,0.094-3.633,0.125-5.07,0.125
		c-6.125,0-37.632-1.047-56.812-21.844c-9.234-10.016-14.429-23.405-15.538-39.967c1.203,0.094,2.46,0.156,3.765,0.156
		c3.867,0,8.141-0.531,12.68-1.938c15.711-4.922,28.781-18.562,38.843-40.594c9.461-20.687,11.023-39.062,4.633-54.562
		c-3.367-8.188-8.468-14.187-13.351-18.468c10.468-7.75,20.132-11.031,25.78-11.031C264.85,163.746,281.061,171.528,295.685,188.59z
		 M214.648,189.527c3.172,2.438,6.898,6.266,9.188,11.844c4.047,9.812,2.602,22.468-4.312,37.577
		c-7.234,15.844-16.047,25.859-25.469,28.969c-3.727,1.234-7.117,1.234-9.796,0.844
		C188.086,231.511,200.711,206.043,214.648,189.527z"/>
	<path style="fill:#080808;" d="M447.995,106.669L447.995,106.669h10.656V74.67c0-41.171-33.484-74.67-74.654-74.67H128.002
		C86.83,0,53.339,33.499,53.339,74.67v31.999h10.664h10.664v298.667H53.339v31.999c0,41.156,33.491,74.655,74.663,74.655h255.995
		c41.17,0,74.654-33.499,74.654-74.655v-31.999h-21.312V106.669H447.995z M128.002,21.343h255.995
		c29.405,0,53.342,23.921,53.342,53.327v10.671h-10.688H96.002H74.667V74.67C74.667,45.265,98.596,21.343,128.002,21.343z
		 M74.667,437.335v-10.672h10.671h10.664l0,0h42.663v64h-10.663C98.596,490.663,74.667,466.741,74.667,437.335z M351.997,426.663v64
		H160.001v-64H351.997z M383.997,490.663h-10.656v-64h42.655l0,0h10.655h10.688v10.672
		C437.339,466.741,413.402,490.663,383.997,490.663z M415.996,405.336H96.002V106.669h319.994L415.996,405.336L415.996,405.336z"/>
	<path style="fill:#080808;" d="M192,469.335h21.336c5.891,0,10.664-4.781,10.664-10.672s-4.773-10.672-10.664-10.672H192
		c-5.891,0-10.663,4.781-10.663,10.672S186.109,469.335,192,469.335z"/>
	<path style="fill:#080808;" d="M245.335,469.335h21.328c5.898,0,10.68-4.781,10.68-10.672s-4.781-10.672-10.68-10.672h-21.328
		c-5.891,0-10.671,4.781-10.671,10.672S239.444,469.335,245.335,469.335z"/>
	<path style="fill:#080808;" d="M298.654,469.335h21.343c5.891,0,10.656-4.781,10.656-10.672s-4.766-10.672-10.656-10.672h-21.343
		c-5.875,0-10.655,4.781-10.655,10.672S292.779,469.335,298.654,469.335z"/>
	<path style="fill:#080808;" d="M181.337,63.998h149.316c5.906,0,10.688-4.781,10.688-10.656c0-5.906-4.781-10.671-10.688-10.671
		H181.337c-5.891,0-10.672,4.766-10.672,10.671C170.665,59.217,175.446,63.998,181.337,63.998z"/>
	<path style="fill:#080808;" d="M117.338,394.665c5.891,0,10.664-4.766,10.664-10.672V127.997c0-5.891-4.773-10.656-10.664-10.656
		c-5.891,0-10.672,4.766-10.672,10.656v255.996C106.666,389.899,111.447,394.665,117.338,394.665z"/>
	<path style="fill:#080808;" d="M394.653,394.665c5.905,0,10.687-4.766,10.687-10.672V127.997c0-5.891-4.781-10.656-10.687-10.656
		c-5.875,0-10.656,4.766-10.656,10.656v255.996C383.997,389.899,388.778,394.665,394.653,394.665z"/>
</g>
<g>
</g>
<g>
</g>
<g>
</g>
<g>
</g>
<g>
</g>
<g>
</g>
<g>
</g>
<g>
</g>
<g>
</g>
<g>
</g>
<g>
</g>
<g>
</g>
<g>
</g>
<g>
</g>
<g>
</g>
</svg>
