<?xml version="1.0" encoding="iso-8859-1"?>
<!-- Generator: Adobe Illustrator 19.0.0, SVG Export Plug-In . SVG Version: 6.00 Build 0)  -->
<svg version="1.1" id="Layer_2" xmlns="http://www.w3.org/2000/svg" xmlns:xlink="http://www.w3.org/1999/xlink" x="0px" y="0px"
	 viewBox="0 0 496 496" style="enable-background:new 0 0 496 496;" xml:space="preserve">
<path style="fill:#FFCB57;" d="M344,488H152c-35.344,0-64-28.656-64-64V24c0-8.84,7.16-16,16-16h288c8.84,0,16,7.16,16,16v400
	C408,459.344,379.344,488,344,488z"/>
<path style="fill:#F2BE55;" d="M392,8h-24c8.84,0,16,7.16,16,16v400c0,35.344-28.656,64-64,64h24c35.344,0,64-28.656,64-64V24
	C408,15.16,400.84,8,392,8z"/>
<path style="fill:#684621;" d="M344,496H152c-39.696,0-72-32.304-72-72V24c0-13.232,10.768-24,24-24h288c13.232,0,24,10.768,24,24
	v400C416,463.696,383.696,496,344,496z M104,16c-4.408,0-8,3.592-8,8v400c0,30.88,25.12,56,56,56h192c30.88,0,56-25.12,56-56V24
	c0-4.408-3.592-8-8-8H104z"/>
<rect x="120" y="56" style="fill:#9B9B9B;" width="256" height="208"/>
<rect x="120" y="56" style="fill:#B5B5B5;" width="256" height="208"/>
<g>
	<rect x="152" y="56" style="fill:#9B9B9B;" width="32" height="208"/>
	<rect x="288" y="56" style="fill:#9B9B9B;" width="32" height="208"/>
	<rect x="336" y="56" style="fill:#9B9B9B;" width="16" height="208"/>
</g>
<g>
	<path style="fill:#684621;" d="M384,272H112V48h272V272z M128,256h240V64H128V256z"/>
	<rect x="112" y="8" style="fill:#684621;" width="16" height="24"/>
	<rect x="144" y="8" style="fill:#684621;" width="16" height="24"/>
</g>
<g>
	<polygon style="fill:#EFE7E4;" points="216,352 184,352 184,320 152,320 152,352 120,352 120,384 152,384 152,416 184,416 184,384 
		216,384 	"/>
	<circle style="fill:#EFE7E4;" cx="312" cy="320" r="16"/>
	<circle style="fill:#EFE7E4;" cx="312" cy="416" r="16"/>
	<circle style="fill:#EFE7E4;" cx="360" cy="368" r="16"/>
	<circle style="fill:#EFE7E4;" cx="264" cy="368" r="16"/>
</g>
<g>
	<path style="fill:#684621;" d="M192,424h-48v-32h-32v-48h32v-32h48v32h32v48h-32V424z M160,408h16v-32h32v-16h-32v-32h-16v32h-32
		v16h32V408z"/>
	<path style="fill:#684621;" d="M312,344c-13.232,0-24-10.768-24-24s10.768-24,24-24s24,10.768,24,24S325.232,344,312,344z M312,312
		c-4.408,0-8,3.592-8,8s3.592,8,8,8s8-3.592,8-8S316.408,312,312,312z"/>
	<path style="fill:#684621;" d="M312,440c-13.232,0-24-10.768-24-24s10.768-24,24-24s24,10.768,24,24S325.232,440,312,440z M312,408
		c-4.408,0-8,3.592-8,8s3.592,8,8,8s8-3.592,8-8S316.408,408,312,408z"/>
	<path style="fill:#684621;" d="M360,392c-13.232,0-24-10.768-24-24s10.768-24,24-24s24,10.768,24,24S373.232,392,360,392z M360,360
		c-4.408,0-8,3.592-8,8s3.592,8,8,8s8-3.592,8-8S364.408,360,360,360z"/>
	<path style="fill:#684621;" d="M264,392c-13.232,0-24-10.768-24-24s10.768-24,24-24s24,10.768,24,24S277.232,392,264,392z M264,360
		c-4.408,0-8,3.592-8,8s3.592,8,8,8s8-3.592,8-8S268.408,360,264,360z"/>
</g>
<g>
</g>
<g>
</g>
<g>
</g>
<g>
</g>
<g>
</g>
<g>
</g>
<g>
</g>
<g>
</g>
<g>
</g>
<g>
</g>
<g>
</g>
<g>
</g>
<g>
</g>
<g>
</g>
<g>
</g>
</svg>
